HIERARCHY
ROOT Hips
{
  OFFSET 57.8838 95.319 338.509
  CHANNELS 6 Xposition Yposition Zposition Zrotation Xrotation Yrotation
  JOINT LeftUpLeg
  {
    OFFSET 8.64259 1.95398 -2.38835
    CHANNELS 3 Zrotation Xrotation Yrotation
    JOINT LeftLeg
    {
      OFFSET 43.7702 0 0
      CHANNELS 3 Zrotation Xrotation Yrotation
      JOINT LeftFoot
      {
        OFFSET 40.6238 0 0
        CHANNELS 3 Zrotation Xrotation Yrotation
        JOINT LeftToeBase
        {
          OFFSET 12.7242 0 0
          CHANNELS 3 Zrotation Xrotation Yrotation
          End Site
          {
            OFFSET 0 0 0
          }
        }
      }
    }
  }
  JOINT RightUpLeg
  {
    OFFSET -8.2249 1.95398 -2.59336
    CHANNELS 3 Zrotation Xrotation Yrotation
    JOINT RightLeg
    {
      OFFSET 43.5653 0 0
      CHANNELS 3 Zrotation Xrotation Yrotation
      JOINT RightFoot
      {
        OFFSET 40.6238 0 0
        CHANNELS 3 Zrotation Xrotation Yrotation
        JOINT RightToeBase
        {
          OFFSET 12.7242 0 0
          CHANNELS 3 Zrotation Xrotation Yrotation
          End Site
          {
            OFFSET 0 0 0
          }
        }
      }
    }
  }
  JOINT Spine
  {
    OFFSET 0.165834 0.87714 6.61349
    CHANNELS 3 Zrotation Xrotation Yrotation
    JOINT Spine1
    {
      OFFSET 7.38963 1.71661e-005 0
      CHANNELS 3 Zrotation Xrotation Yrotation
      JOINT Spine2
      {
        OFFSET 11.9445 1.14441e-005 0
        CHANNELS 3 Zrotation Xrotation Yrotation
        JOINT Spine3
        {
          OFFSET 14.7254 4.19617e-005 0
          CHANNELS 3 Zrotation Xrotation Yrotation
          JOINT Spine4
          {
            OFFSET 10.9679 0 0
            CHANNELS 3 Zrotation Xrotation Yrotation
            JOINT RightShoulder
            {
              OFFSET 2.46616 -1.6653 3.69651
              CHANNELS 3 Zrotation Xrotation Yrotation
              JOINT RightArm
              {
                OFFSET 13.0012 0 0
                CHANNELS 3 Zrotation Xrotation Yrotation
                JOINT RightForeArm
                {
                  OFFSET 28.7848 1.62311e-005 0
                  CHANNELS 3 Zrotation Xrotation Yrotation
                  JOINT RightHand
                  {
                    OFFSET 26.5688 1.62095e-005 0
                    CHANNELS 3 Zrotation Xrotation Yrotation
                    End Site
                    {
                      OFFSET 0 0 0
                    }
                  }
                }
              }
            }
            JOINT LeftShoulder
            {
              OFFSET 2.38034 -1.29275 -3.7523
              CHANNELS 3 Zrotation Xrotation Yrotation
              JOINT LeftArm
              {
                OFFSET 16.3182 6.07031e-005 0
                CHANNELS 3 Zrotation Xrotation Yrotation
                JOINT LeftForeArm
                {
                  OFFSET 27.0901 0 0
                  CHANNELS 3 Zrotation Xrotation Yrotation
                  JOINT LeftHand
                  {
                    OFFSET 24.5451 1.51738e-005 0
                    CHANNELS 3 Zrotation Xrotation Yrotation
                    End Site
                    {
                      OFFSET 0 0 0
                    }
                  }
                }
              }
            }
            JOINT Neck
            {
              OFFSET 5.0226 -0.0266342 0
              CHANNELS 3 Zrotation Xrotation Yrotation
              JOINT Head
              {
                OFFSET 6.69364 2.86102e-005 0
                CHANNELS 3 Zrotation Xrotation Yrotation
                End Site
                {
                  OFFSET 0 0 0
                }
              }
            }
          }
        }
      }
    }
  }
}
MOTION
Frames:	14
Frame Time:	0.0416667
280.774 70.1038 270.032 -97.5742 49.5277 -70.5597 -115.106 -18.5547 152.276 -123.934 -38.2973 -112.502 75.2481 6.83836 -43.5192 36.0972 26.73 129.854 178.516 14.4669 96.3934 133.807 -82.4954 -133.351 122.523 76.9635 -84.7278 164.348 -30.4616 93.8256 10.7398 11.0757 -94.6936 5.4245 19.5115 -9.64313 -6.13761 19.07 -10.5126 -29.8569 21.4696 -3.09297 -9.84424 21.4696 -3.09298 113.134 -13.2808 -52.0726 85.9321 45.2201 6.04754 -8.8286 8.70012 -144.432 -7.63206 4.66454 -72.6255 80.4673 -52.1234 -97.4445 -108.459 -28.7339 -2.97773 -127.638 34.2002 -171.039 22.119 1.96874 5.09525 -100.479 -25.5557 80.14 -7.93292 78.1016 81.9238 
281.139 70.0687 270.383 -97.4827 49.5404 -70.3279 -114.694 -17.626 152.948 -123.265 -37.1613 -111.48 76.3807 7.17233 -43.9864 36.2121 26.8182 129.352 179.274 12.963 97.6009 144.678 -82.4354 -123.04 120.718 76.9384 -80.7153 164.437 -30.0996 94.0162 10.7663 11.0479 -94.6987 5.48601 19.5598 -9.67096 -6.07558 19.117 -10.5427 -29.8009 21.5237 -3.10317 -9.7883 21.5237 -3.10319 113.235 -13.5357 -51.9655 86.1247 44.8214 5.70842 -8.62327 8.54347 -144.499 -7.66395 4.64931 -72.2117 80.3598 -52.1888 -97.5297 -108.47 -29.0775 -2.85976 -128.088 35.0773 -171.228 21.0172 2.00323 5.71099 -100.503 -25.6097 80.3555 -6.75164 78.5492 80.6876 
282.281 69.9397 271.479 -97.2049 49.5767 -69.6099 -113.364 -14.6912 154.869 -121.489 -33.7416 -108.644 79.9002 8.29713 -45.4994 36.5652 27.0319 127.815 -178.385 8.29182 101.43 176.216 -80.8768 -93.701 114.201 76.9037 -67.757 164.541 -29.041 94.5251 10.8465 10.9614 -94.7135 5.67701 19.7061 -9.75578 -5.88294 19.2596 -10.6343 -29.6269 21.6879 -3.13445 -9.61428 21.6879 -3.13446 113.549 -14.3289 -51.6384 86.6858 43.5721 4.69328 -8.10271 8.20591 -144.685 -7.8255 4.64569 -70.9742 80.039 -52.3993 -97.7873 -108.499 -30.1015 -2.50067 -129.482 37.369 -171.771 17.3979 2.02584 7.70914 -100.546 -25.7568 81.0208 -2.6717 79.8333 76.468 
284.182 69.6697 273.296 -96.7684 49.6268 -68.4472 -111.054 -9.76627 157.472 -119.367 -28.4609 -104.854 85.7431 10.3437 -48.2054 37.1229 27.2039 125.375 -174.496 0.87841 107.608 -151.053 -75.0073 -65.9166 100.788 76.9485 -45.0934 164.316 -27.4924 95.1624 10.9715 10.8205 -94.7343 5.98806 19.9338 -9.88866 -5.56939 19.4812 -10.7777 -29.3426 21.9435 -3.18387 -9.32992 21.9435 -3.18385 114.064 -15.6265 -51.1218 87.4914 41.5015 3.15047 -7.54203 8.0264 -144.936 -8.24149 4.74087 -69.103 79.5533 -52.7629 -98.1874 -108.531 -31.6471 -1.93282 -131.777 39.9555 -172.488 11.0746 1.73295 11.0058 -100.517 -25.9461 82.0941 5.62111 81.595 68.0393 
286.906 69.1977 275.875 -96.1951 49.6789 -66.8664 -107.629 -2.81346 159.99 -121.184 -21.0009 -102.063 96.8837 13.0295 -56.0037 37.8345 27.133 122.16 -169.422 -15.1938 124.376 -135.617 -49.9686 -67.6056 117.198 81.456 -42.3749 163.464 -25.568 95.8165 11.132 10.6272 -94.7565 6.41447 20.2263 -10.0609 -5.13969 19.766 -10.9636 -28.951 22.2725 -3.2484 -8.93836 22.2725 -3.2484 114.778 -17.4194 -50.4433 88.3982 38.5975 1.22819 -7.15364 8.27759 -145.215 -9.0138 4.99203 -66.7916 78.952 -53.2979 -98.7024 -108.555 -33.5542 -1.18154 -134.999 41.9077 -173.145 2.08766 0.671428 15.1265 -100.297 -26.1275 83.5516 21.0924 83.327 52.5248 
290.591 68.4581 279.322 -95.5046 49.72 -64.9003 -102.895 5.97289 161.327 -43.2967 -10.4762 -78.8708 59.2528 1.33205 15.5548 38.613 26.6403 118.345 -148.619 -44.5362 148.549 -89.2231 -18.7063 -83.0294 -38.3394 69.651 130.469 161.538 -23.0482 96.5085 11.3176 10.3838 -94.7746 6.95074 20.5649 -10.2619 -4.59957 20.0956 -11.1804 -28.4558 22.6536 -3.32428 -8.44315 22.6536 -3.32429 115.691 -19.702 -49.6322 89.2492 34.8537 -0.922525 -7.05486 9.10719 -145.491 -10.1908 5.41248 -64.2368 78.2891 -54.0233 -99.3018 -108.564 -35.6532 -0.277973 -139.022 42.867 -173.596 -8.86892 -1.45123 19.1909 -99.7553 -26.2583 85.3813 46.3602 84.2808 27.3654 
295.568 67.3256 283.874 -94.7134 49.7383 -62.5965 -96.6434 15.8093 159.911 32.3138 3.17743 -85.4788 53.7334 0.399439 88.818 39.3551 25.6653 114.123 -139.814 -45.9744 150.079 -55.8974 -25.0316 -65.6858 -17.5728 51.1741 100.385 157.174 -18.8103 97.5919 11.5164 10.0938 -94.783 7.5885 20.9274 -10.4796 -3.95761 20.4483 -11.415 -27.8629 23.0622 -3.40729 -7.85024 23.0622 -3.40727 116.802 -22.4594 -48.7185 89.8918 30.2957 -3.16287 -7.29101 10.5539 -145.733 -11.774 5.98391 -61.6218 77.6221 -54.9527 -99.9515 -108.572 -37.7745 0.735197 -143.356 43.1039 -173.96 -20.4056 -4.42261 22.4245 -98.7755 -26.3037 87.5898 74.3518 83.8035 -0.352516 
302.592 65.5817 290.07 -93.8342 49.724 -60.0202 -88.9533 25.1503 153.399 -54.2337 3.9393 -92.6246 93.856 53.3693 -1.55763 39.9991 24.3388 109.637 -136.426 -43.2613 143.967 -29.7486 -8.6697 -33.0085 -4.8111 33.4162 76.507 147.329 -10.6029 100.981 11.7158 9.7618 -94.7774 8.31656 21.2907 -10.7029 -3.22534 20.8015 -11.6552 -27.1807 23.4732 -3.49484 -7.16802 23.4731 -3.49486 118.103 -25.6541 -47.7304 90.1962 25.0024 -5.37929 -7.86629 12.5798 -145.897 -13.733 6.67701 -59.0966 77.0017 -56.086 -100.619 -108.599 -39.7755 1.80578 -147.331 43.1817 -174.53 -30.9984 -7.6641 24.7194 -97.2904 -26.2261 90.1861 93.9327 82.1101 -19.525 
312.084 63.6019 298.197 -92.876 49.6708 -57.2489 -82.5075 36.2801 139.618 -64.8276 13.8718 -90.0996 126.233 64.0746 -24.5539 40.5457 22.8871 104.966 -123.813 -46.4119 143.981 -6.19146 32.8261 -12.7812 -1.87028 10.3135 60.1022 130.172 1.02402 108.907 11.9052 9.39283 -94.7574 9.1236 21.6337 -10.9274 -2.41436 21.1345 -11.8958 -26.4175 23.8652 -3.59011 -6.40487 23.8652 -3.59015 119.579 -29.2098 -46.6905 90.0758 19.1135 -7.49037 -8.77161 15.1079 -145.928 -16.0221 7.46663 -56.7716 76.4603 -57.4007 -101.276 -108.664 -41.5662 2.88256 -150.499 43.5268 -175.501 -39.679 -10.7272 26.474 -95.3216 -25.9704 93.1343 105.218 79.7857 -30.3269 
322.55 62.536 307.261 -91.8472 49.5773 -54.368 -69.716 47.3522 113.171 -75.535 16.3225 -76.6905 155.615 66.9401 -40.5875 41.0086 21.4636 100.209 -108.273 -49.083 151.8 -0.979788 68.1388 1.32184 1.64154 -2.60927 50.639 112.114 9.62727 119.449 12.0778 8.99002 -94.7288 10.0028 21.94 -11.162 -1.53201 21.4304 -12.1445 -25.5776 24.2254 -3.70749 -5.56497 24.2255 -3.7075 121.199 -32.9874 -45.6067 89.5046 12.828 -9.43323 -9.99922 18.0433 -145.763 -18.5862 8.3349 -54.7245 76.002 -58.8436 -101.912 -108.757 -43.1283 3.93104 -152.727 44.3048 -176.885 -46.1664 -13.4416 28.1071 -93.0189 -25.4692 96.2888 111.712 77.1954 -36.3394 
332.693 62.5052 316.341 -90.7581 49.4472 -51.4661 -53.4546 48.4843 81.0176 -76.4044 9.60852 -65.5963 171.82 70.9793 -48.3253 41.3619 20.0782 95.5324 -102.898 -46.4287 157.723 1.30473 85.2237 -1.75447 5.07201 -3.80609 53.3531 99.6724 12.6126 127.343 12.2328 8.55299 -94.7054 10.9562 22.2009 -11.4335 -0.576479 21.6793 -12.4278 -24.6565 24.5537 -3.87622 -4.64385 24.5537 -3.87623 122.922 -36.7687 -44.4624 88.5318 6.39256 -11.1468 -11.5485 21.2864 -145.328 -21.3643 9.27218 -53.006 75.5917 -60.327 -102.531 -108.813 -44.536 4.95734 -154.064 45.4839 -178.609 -50.663 -15.791 29.828 -90.6911 -24.6705 99.3435 115.568 74.5874 -39.8011 
342.471 63.029 325.277 -89.6233 49.2878 -48.6229 -45.8767 43.14 55.6768 -66.275 -0.569071 -55.2347 178.393 78.29 -52.9893 41.5451 18.6519 91.1333 -98.8824 -43.5188 161.948 178.825 85.338 -179.137 6.4603 -3.96911 55.8965 91.59 13.442 132.175 12.3746 8.07919 -94.7031 11.9918 22.4162 -11.7748 0.459586 21.8797 -12.7783 -23.6451 24.8597 -4.1283 -3.63247 24.8597 -4.1283 124.713 -40.3173 -43.2132 87.2728 0.0474179 -12.5865 -13.4275 24.735 -144.544 -24.2969 10.278 -51.6424 75.1669 -61.7584 -103.161 -108.725 -45.9266 6.01009 -155.019 47.1032 179.947 -53.5747 -17.7938 31.6612 -88.7073 -23.5717 101.925 117.886 72.1791 -41.8785 
351.997 63.8181 334.06 -88.4607 49.1089 -45.9019 -49.3751 36.4662 36.6042 -43.4933 -12.0233 -37.7937 134.997 87.0652 -15.5293 41.5011 17.1083 87.1593 -96.2336 -40.4898 164.881 179.477 79.8062 -179.752 7.00553 -3.78533 58.1579 85.9841 13.4429 135.213 12.2315 7.88815 -94.4002 12.3764 22.2496 -11.2382 0.847281 21.7364 -12.2358 -23.2501 24.5393 -3.67214 -3.23747 24.5393 -3.67214 127.097 -46.9661 -42.4122 84.1223 -6.89096 -14.996 -15.3107 27.0207 -143.486 -27.4774 11.3957 -50.5519 76.0981 -64.1383 -102.963 -111.274 -44.056 4.93844 -156.548 48.6287 179.948 -55.2187 -19.4763 33.6443 -119.126 -31.7965 90.6146 32.2971 63.9799 49.503 
361.268 64.7261 342.635 -87.2922 48.9209 -43.3502 -61.949 31.5742 20.7122 -7.45406 -18.018 -7.33005 37.5148 80.0072 69.0239 41.1906 15.3975 83.6937 -94.4728 -37.5237 166.934 179.601 76.3429 -179.863 7.15931 -3.58346 60.0761 81.8489 13.1274 137.201 11.0631 8.64594 -92.906 10.344 20.7214 -7.56533 -1.1823 20.3687 -8.50164 -25.113 21.9927 -0.685847 -5.10039 21.9927 -0.685866 127.879 -65.1299 -48.8873 73.7686 -15.7213 -21.4467 -16.1544 24.7832 -142.612 -31.2731 12.7265 -49.4528 83.174 -69.5534 -98.2487 -120.696 -30.0552 -1.91653 -157.618 47.9895 179.951 -55.7582 -20.8889 35.8612 130.987 22.8201 36.3638 49.3733 -51.7657 139.901 
